<svg width="632" height="395" version="1.1" xmlns="http://www.w3.org/2000/svg" desc="Created with imagetracer.js version 1.2.6" ><path fill="rgb(0,0,0)" stroke="rgb(0,0,0)" stroke-width="1" opacity="0" d="M 0 0 L 632 0 L 632 395 L 0 395 L 0 0 Z M 179 54 L 171 56 L 164 60 L 154 72 L 152 80 L 153 96 L 158 104 Q 164 113 177 115 L 456 115 Q 464 114 469 109 L 478 98 L 480 91 L 479 75 L 474 66 Q 467 57 455 54 L 179 54 Z M 411 167 L 410 168 L 175 168 L 165 173 L 154 185 L 152 193 L 153 209 L 158 217 L 170 226 L 178 228 L 455 228 L 463 226 L 469 222 L 479 209 Q 478 204 480 203 L 479 187 L 474 179 L 463 169 L 459 168 L 448 168 L 447 167 L 411 167 Z M 176 281 L 169 283 L 165 286 L 154 298 L 152 306 L 153 322 L 160 333 L 170 339 L 177 341 L 456 341 L 463 339 L 472 333 L 479 322 Q 478 317 480 316 L 479 301 L 474 292 L 464 283 L 456 281 L 176 281 Z " /><path fill="rgb(226,227,228)" stroke="rgb(226,227,228)" stroke-width="1" opacity="0.4745098039215686" d="M 178.5 54 L 454.5 54 Q 467.4 56.6 474 65.5 L 479 74.5 L 480 90.5 L 478 97.5 L 468.5 109 Q 463.7 113.7 455.5 115 L 176.5 115 Q 163.9 112.6 158 103.5 L 153 95.5 L 152 79.5 L 154 71.5 L 163.5 60 L 170.5 56 L 178.5 54 Z M 178 56 L 166 61 Q 157 67 154 79 Q 152 94 158 101 Q 164 110 177 113 L 456 113 L 467 108 Q 475 102 478 91 Q 480 75 473 68 L 462 58 L 455 56 L 178 56 Z " /><path fill="rgb(226,227,228)" stroke="rgb(226,227,228)" stroke-width="1" opacity="0.4745098039215686" d="M 410.5 167 L 446.5 167 L 447.5 168 L 458.5 168 L 462.5 169 L 474 178.5 L 479 186.5 L 480 202.5 Q 477.8 203.8 479 208.5 L 468.5 222 L 462.5 226 L 454.5 228 L 177.5 228 L 169.5 226 L 158 216.5 L 153 208.5 L 152 192.5 L 154 184.5 L 164.5 173 L 174.5 168 L 409.5 168 L 410.5 167 Z M 178 169 L 167 174 Q 158 180 154 191 Q 152 206 158 214 Q 164 223 177 226 L 456 226 L 467 221 Q 475 215 478 204 L 477 188 L 473 181 Q 466 172 455 169 L 178 169 Z " /><path fill="rgb(226,227,228)" stroke="rgb(226,227,228)" stroke-width="1" opacity="0.4745098039215686" d="M 175.5 281 L 455.5 281 L 463.5 283 L 474 291.5 L 479 300.5 L 480 315.5 Q 477.8 316.8 479 321.5 L 472 333 L 462.5 339 L 455.5 341 L 176.5 341 L 169.5 339 L 160 333 L 153 321.5 L 152 305.5 L 154 297.5 L 164.5 286 L 168.5 283 L 175.5 281 Z M 175 283 L 164 289 Q 156 294 154 305 Q 152 320 158 327 Q 164 336 177 339 L 456 339 L 466 335 L 474 327 L 477 321 L 479 312 L 477 301 L 472 293 Q 467 285 457 283 L 175 283 Z " /><path fill="rgb(254,254,254)" stroke="rgb(254,254,254)" stroke-width="1" opacity="0.996078431372549" d="M 177.5 56 L 454.5 56 L 461.5 58 L 473 67.5 Q 479.9 74.6 478 90.5 Q 475.4 102.4 466.5 108 L 455.5 113 L 176.5 113 Q 164.3 109.7 158 100.5 Q 152 93.5 154 78.5 Q 156.9 66.9 165.5 61 L 177.5 56 Z M 185 57 L 185 58 Q 191 56 193 59 L 393 59 L 397 58 L 185 57 Z M 400 57 L 400 59 L 432 59 L 433 58 L 450 58 L 400 57 Z M 177 58 L 175 59 L 176 61 L 182 61 L 178 60 L 178 59 L 177 58 Z M 459 59 L 459 60 L 461 60 L 459 59 Z M 185 60 L 185 61 L 192 61 L 185 60 Z M 209 60 L 209 61 L 424 61 L 209 60 Z M 433 60 L 433 61 L 448 61 L 433 60 Z M 453 60 L 453 61 L 457 61 L 453 60 Z M 449 61 L 448 62 L 181 62 L 180 64 Q 176 65 177 62 L 174 63 L 176 63 L 176 64 L 170 64 L 170 72 L 167 71 L 163 72 L 162 69 L 160 73 L 160 80 L 162 80 L 162 88 L 161 89 L 161 96 L 164 96 L 164 100 L 165 100 Q 164 95 167 96 L 168 88 L 168 96 L 171 97 L 169 98 Q 166 97 167 100 L 170 100 Q 174 101 176 99 L 178 108 Q 176 114 181 112 L 182 108 L 182 111 L 184 112 L 185 110 L 448 110 L 448 108 Q 453 107 453 110 L 456 110 Q 455 105 458 104 Q 462 103 464 105 L 465 102 Q 464 99 460 100 L 462 96 L 467 96 L 467 88 L 469 89 L 469 96 L 473 97 L 472 96 Q 471 90 473 89 L 472 88 L 472 80 L 466 80 L 472 77 L 464 74 L 465 68 L 464 65 L 464 62 L 460 64 L 456 64 L 458 63 L 458 62 Q 454 61 455 64 L 448 64 L 450 63 L 449 61 Z M 167 65 L 165 68 L 167 67 L 167 65 Z M 469 69 L 470 71 Q 471 68 469 69 Z M 467 71 L 467 72 L 469 72 L 467 71 Z M 472 74 Q 471 77 474 76 Q 475 73 472 74 Z M 158 75 L 156 77 L 158 78 L 158 75 Z M 475 76 L 474 79 L 475 79 L 475 76 Z M 159 79 L 158 88 L 159 88 L 159 79 Z M 157 80 L 156 89 L 157 89 L 157 80 Z M 474 80 L 473 88 L 474 88 L 474 80 Z M 159 90 L 158 96 L 159 96 L 159 90 Z M 474 90 L 473 93 L 474 93 L 474 90 Z M 465 97 L 466 99 Q 467 96 465 97 Z M 470 98 Q 468 101 471 100 L 470 98 Z M 467 99 L 466 101 L 468 102 L 467 99 Z M 171 103 L 172 105 L 170 106 L 173 106 L 174 104 L 171 103 Z M 168 104 L 168 105 L 170 105 L 168 104 Z M 459 105 L 459 106 L 461 106 L 459 105 Z M 463 106 L 463 107 L 465 107 L 463 106 Z M 173 107 L 171 109 L 174 109 Q 175 106 173 107 Z M 176 109 L 172 111 L 176 111 L 176 109 Z " /><path fill="rgb(254,254,254)" stroke="rgb(254,254,254)" stroke-width="1" opacity="0.996078431372549" d="M 392.5 63 L 396 63.5 L 392.5 64 L 392.5 63 Z " /><path fill="rgb(254,254,254)" stroke="rgb(254,254,254)" stroke-width="1" opacity="0.996078431372549" d="M 173.5 96 Q 176.8 94.9 176 97.5 L 174.5 97 L 173.5 96 Z " /><path fill="rgb(254,254,254)" stroke="rgb(254,254,254)" stroke-width="1" opacity="0.996078431372549" d="M 448 96 Q 453.2 93.9 452 98.5 L 448 100 L 448 96 Z " /><path fill="rgb(254,254,254)" stroke="rgb(254,254,254)" stroke-width="1" opacity="0.996078431372549" d="M 177.5 169 L 454.5 169 Q 466.5 172 473 180.5 L 477 187.5 L 478 203.5 Q 475.4 215.4 466.5 221 L 458.5 225 Q 457 222.5 455.5 226 L 176.5 226 L 176 224.5 L 174.5 225 Q 163.6 221.9 158 213.5 Q 151.8 206.2 154 190.5 Q 157.8 179.8 166.5 174 L 177.5 169 Z M 180 170 L 179 172 L 184 171 L 180 170 Z M 452 170 L 453 172 L 455 172 L 452 170 Z M 185 171 L 185 172 L 449 172 L 185 171 Z M 173 172 L 174 174 Q 175 171 173 172 Z M 181 173 Q 180 175 184 174 L 184 176 L 176 176 L 176 178 L 173 179 Q 168 178 170 182 L 174 184 L 168 184 L 168 186 L 167 184 L 166 186 L 161 187 L 163 191 L 163 192 L 160 193 L 160 200 L 159 199 L 157 200 L 158 202 L 160 202 L 159 207 L 159 209 L 161 209 L 163 209 L 167 208 L 173 209 L 172 210 Q 167 209 166 211 L 164 210 Q 160 209 161 213 L 161 214 Q 163 215 162 212 L 165 212 Q 166 215 168 211 L 173 214 L 176 214 L 175 219 L 176 222 Q 173 223 178 225 L 183 224 L 191 224 L 192 225 L 256 225 L 367 224 L 440 224 L 441 225 L 448 225 L 449 222 L 456 222 Q 458 221 456 220 L 458 216 L 462 217 L 464 217 L 465 208 L 472 209 L 473 209 Q 470 207 472 201 L 469 192 L 465 192 L 465 194 L 464 194 L 465 188 L 468 190 L 469 188 L 466 186 L 464 187 L 465 182 L 464 180 L 465 178 L 464 174 L 463 176 L 459 174 L 459 176 L 449 176 L 448 174 L 441 174 L 440 173 L 401 173 L 400 174 L 201 174 L 200 173 L 181 173 Z M 467 178 L 465 180 L 467 180 L 467 178 Z M 159 185 L 158 188 L 159 188 L 159 185 Z M 474 185 Q 472 188 475 187 L 474 185 Z M 475 188 L 475 191 Q 478 190 475 188 Z M 474 192 L 473 198 L 474 198 L 474 192 Z M 476 192 L 475 195 L 476 195 L 476 192 Z M 474 202 L 473 205 L 474 205 L 474 202 Z M 157 204 L 157 208 L 158 208 L 157 204 Z M 468 209 L 466 212 L 469 211 Q 470 208 468 209 Z M 472 211 L 470 213 L 473 213 Q 474 210 472 211 Z M 470 214 L 467 217 L 470 217 L 470 214 Z M 173 217 L 172 219 L 175 218 L 173 217 Z M 457 217 Q 456 220 459 219 Q 460 216 457 217 Z M 173 219 L 173 221 L 175 222 Q 176 218 173 219 Z M 457 221 L 457 223 L 460 224 L 460 223 L 457 221 Z M 450 224 L 450 225 L 452 225 L 450 224 Z " /><path fill="rgb(254,254,254)" stroke="rgb(254,254,254)" stroke-width="1" opacity="0.996078431372549" d="M 175.5 187 L 176 192 Q 171.9 193.7 173 189.5 L 175.5 187 Z " /><path fill="rgb(254,254,254)" stroke="rgb(254,254,254)" stroke-width="1" opacity="0.996078431372549" d="M 174.5 283 Q 180.6 282.4 183.5 285 L 184.5 284 L 423.5 284 L 424.5 283 L 439.5 283 L 448.5 285 L 452 284 Q 450.8 287 454.5 286 L 453.5 283 Q 466.3 284.3 472 292.5 L 477 300.5 L 479 312 Q 476.3 310.9 477 313.5 L 478 316.5 Q 476.2 326.2 469.5 331 L 468 330.5 Q 468.5 334.5 465.5 335 L 457.5 338 L 456 334.5 L 458.5 332 L 465 330.5 L 464.5 329 L 466 328.5 L 464 328 L 464.5 325 L 468.5 327 Q 470.8 326.3 470 322.5 Q 468.8 319.8 467.5 322 L 464.5 323 L 464 317.5 Q 468.3 313.1 467 304 L 465 304.5 L 465 311.5 L 464 311.5 L 464 302.5 L 465.5 301 Q 469.3 302 468 299 L 464 297.5 Q 465.1 294.2 462.5 295 L 461.5 293 L 466 291.5 L 456 289 Q 457.3 286 453.5 287 L 451.5 287 L 448.5 288 Q 446.8 285.3 440.5 287 L 439.5 288 L 424.5 288 L 423.5 287 L 408.5 287 Q 406.7 289.8 400.5 288 L 399.5 287 L 336.5 287 L 336.5 288 L 391.5 288 L 392 290 L 336.5 290 Q 337.3 286.6 328.5 288 Q 326.8 285.3 320.5 287 Q 318.7 289.8 312.5 288 Q 310.8 285.3 304.5 287 Q 302.7 289.8 296.5 288 L 295.5 287 L 224.5 287 L 224.5 288 L 279.5 288 L 280 290 L 224.5 290 Q 225.3 286.6 216.5 288 L 215.5 287 L 184.5 287 L 182.5 285 L 180 286.5 L 183 287.5 L 176 288 Q 177.1 290.7 174.5 290 L 171.5 289 L 168 292.5 L 170 294.5 L 170 304 L 166.5 304 L 162.5 299 L 159.5 297 L 158 299.5 L 160 299.5 L 159 302.5 L 162 304 L 162 320.5 L 160 323.5 L 162.5 327 L 165.5 325 L 167.5 330 L 168 326 L 175.5 326 L 176 328 L 174 328.5 L 176 329 Q 177.3 332.3 172.5 331 L 173.5 333 L 176 332 L 175 336 L 181.5 337 L 183.5 336 L 184.5 337 L 447.5 337 L 449 336.5 L 448.5 338 L 451.5 337 L 456 338.5 L 176.5 339 Q 163.9 336.1 158 326.5 Q 152 319.5 154 304.5 Q 156.4 294.4 163.5 289 L 174.5 283 Z M 425 284 L 425 285 L 440 285 L 425 284 Z M 185 285 L 185 286 L 392 286 L 185 285 Z M 401 285 L 401 286 L 408 286 L 401 285 Z M 417 285 L 417 286 L 424 286 L 417 285 Z M 441 285 L 441 286 L 448 286 L 441 285 Z M 467 292 L 468 294 Q 469 291 467 292 Z M 472 295 L 472 299 L 473 299 Q 474 294 472 295 Z M 473 300 Q 471 303 474 304 L 476 301 L 474 302 L 473 300 Z M 157 303 L 155 307 L 156 309 L 157 307 L 157 303 Z M 159 303 L 158 306 L 159 306 L 159 303 Z M 469 304 L 469 315 L 468 316 Q 466 321 470 320 L 471 316 L 471 305 L 469 304 Z M 475 304 L 474 307 L 475 307 L 475 304 Z M 158 308 L 157 313 L 158 313 L 158 308 Z M 472 308 Q 471 311 474 310 Q 475 307 472 308 Z M 474 312 L 473 315 L 474 315 L 474 312 Z M 475 314 L 476 320 L 477 316 Q 478 313 475 314 Z M 157 315 L 156 320 L 157 320 L 157 315 Z M 472 318 L 473 322 L 474 320 Q 475 317 472 318 Z M 158 321 L 158 323 L 160 322 L 158 321 Z M 170 328 L 170 329 L 172 329 L 170 328 Z M 469 328 L 470 330 Q 471 327 469 328 Z M 466 331 Q 464 334 467 333 L 466 331 Z M 170 333 L 172 336 L 173 335 Q 174 332 170 333 Z M 462 333 L 458 336 L 458 337 Q 461 338 462 335 L 462 333 Z M 177 337 L 177 338 L 180 338 L 177 337 Z " /><path fill="rgb(254,254,254)" stroke="rgb(254,254,254)" stroke-width="1" opacity="0.996078431372549" d="M 456 328 L 462 328.5 L 456 331 L 456 328 Z " /><path fill="rgb(255,255,255)" stroke="rgb(255,255,255)" stroke-width="1" opacity="1" d="M 184.5 57 L 397 57.5 L 392.5 59 L 192.5 59 Q 190.8 56.3 184.5 58 L 184.5 57 Z " /><path fill="rgb(255,255,255)" stroke="rgb(255,255,255)" stroke-width="1" opacity="1" d="M 400 57 L 450 57.5 L 432.5 58 L 431.5 59 L 400 59 L 400 57 Z " /><path fill="rgb(255,255,255)" stroke="rgb(255,255,255)" stroke-width="1" opacity="1" d="M 176.5 58 L 178 58.5 L 177.5 60 L 182 60.5 L 175.5 61 L 174.5 59 L 176.5 58 Z " /><path fill="rgb(255,255,255)" stroke="rgb(255,255,255)" stroke-width="1" opacity="1" d="M 458.5 59 L 461 59.5 L 458.5 60 L 458.5 59 Z " /><path fill="rgb(255,255,255)" stroke="rgb(255,255,255)" stroke-width="1" opacity="1" d="M 184.5 60 L 192 60.5 L 184.5 61 L 184.5 60 Z " /><path fill="rgb(255,255,255)" stroke="rgb(255,255,255)" stroke-width="1" opacity="1" d="M 208.5 60 L 424 60.5 L 208.5 61 L 208.5 60 Z " /><path fill="rgb(255,255,255)" stroke="rgb(255,255,255)" stroke-width="1" opacity="1" d="M 432.5 60 L 447.5 60 L 450 62.5 L 448 63.5 L 455 64 Q 453.8 61 457.5 62 L 457.5 63 L 456 63.5 L 459.5 64 L 464.5 61 L 465.5 63 Q 464.3 60.7 463 63.5 L 465 67.5 L 464 74 L 472 76 Q 471 73 474 74 L 474.5 76 L 476 75.5 L 475 78.5 L 475.5 80 L 474 76 L 466 79.5 L 472 80 L 472.5 78 Q 475.3 80.7 474 87.5 Q 470.5 89 472 95.5 L 473.5 95 L 475 95.5 L 473 96.5 L 474 98.5 L 472 99.5 L 473 97 L 469.5 96 L 467.5 97 L 462 96 L 460 100 Q 463.8 99 465 101.5 L 463.5 105 Q 462.3 102.8 457.5 104 Q 455 105 456 109.5 L 456.5 111 L 452 110 Q 453.2 106.3 448 108 L 447.5 110 L 184.5 110 L 184 111.5 L 182 110.5 L 181.5 108 L 181 112 Q 176.1 113.8 178 107.5 L 175.5 99 Q 174.3 101.3 169.5 100 L 167 99.5 Q 166.3 97.3 168.5 98 L 171 96.5 L 168 96 L 167.5 88 L 167 96 Q 163.7 94.7 165 99.5 L 164 99.5 L 164 96 L 161 95.5 L 161 88.5 L 162 87.5 L 162 80 L 160 79.5 L 160 72.5 L 161.5 69 L 163 72 L 166.5 71 L 170 72 L 170 64 L 175.5 64 L 175.5 63 L 172 61.5 L 173.5 61 L 177 62 Q 175.9 65.3 180 64 L 180.5 62 L 447.5 62 L 447.5 61 L 432.5 61 L 432.5 60 Z M 393 63 L 393 64 L 396 64 L 393 63 Z M 473 80 L 472 88 L 473 88 L 473 80 Z M 467 88 L 467 96 L 469 96 L 469 89 L 467 88 Z M 174 96 L 175 97 L 176 98 Q 177 95 174 96 Z M 448 96 L 448 100 L 452 99 Q 453 94 448 96 Z " /><path fill="rgb(255,255,255)" stroke="rgb(255,255,255)" stroke-width="1" opacity="1" d="M 452.5 60 L 457 60.5 L 452.5 61 L 452.5 60 Z " /><path fill="rgb(255,255,255)" stroke="rgb(255,255,255)" stroke-width="1" opacity="1" d="M 165.5 63 L 164.5 65 L 163 64.5 L 165.5 63 Z " /><path fill="rgb(255,255,255)" stroke="rgb(255,255,255)" stroke-width="1" opacity="1" d="M 465.5 64 L 467 66.5 L 466 66.5 L 465.5 64 Z " /><path fill="rgb(255,255,255)" stroke="rgb(255,255,255)" stroke-width="1" opacity="1" d="M 468.5 64 L 472 68.5 L 468 65.5 L 468.5 64 Z " /><path fill="rgb(255,255,255)" stroke="rgb(255,255,255)" stroke-width="1" opacity="1" d="M 166.5 65 L 167 66.5 L 164.5 70 L 164 68.5 L 166.5 65 Z " /><path fill="rgb(255,255,255)" stroke="rgb(255,255,255)" stroke-width="1" opacity="1" d="M 467.5 68 L 470 69 L 468.5 72 L 465 70.5 L 465.5 69 L 466 71 L 469 70.5 L 467.5 68 Z " /><path fill="rgb(255,255,255)" stroke="rgb(255,255,255)" stroke-width="1" opacity="1" d="M 158.5 71 L 157.5 73 L 158.5 71 Z " /><path fill="rgb(255,255,255)" stroke="rgb(255,255,255)" stroke-width="1" opacity="1" d="M 158.5 74 L 158 75.5 L 157.5 78 Q 154 76 158.5 74 Z " /><path fill="rgb(255,255,255)" stroke="rgb(255,255,255)" stroke-width="1" opacity="1" d="M 158.5 79 L 160 89.5 Q 157.8 90.8 159 95.5 Q 161.3 96.8 158.5 98 L 158 95.5 L 159 88.5 L 158 87.5 L 158.5 79 Z " /><path fill="rgb(255,255,255)" stroke="rgb(255,255,255)" stroke-width="1" opacity="1" d="M 156.5 80 L 157 88.5 L 156 88.5 L 156.5 80 Z " /><path fill="rgb(255,255,255)" stroke="rgb(255,255,255)" stroke-width="1" opacity="1" d="M 474.5 89 L 474 90.5 L 473.5 93 L 473 90.5 L 474.5 89 Z " /><path fill="rgb(255,255,255)" stroke="rgb(255,255,255)" stroke-width="1" opacity="1" d="M 464.5 97 Q 466.8 96.3 466 98.5 L 468 101.5 L 466 100.5 L 464.5 97 Z " /><path fill="rgb(255,255,255)" stroke="rgb(255,255,255)" stroke-width="1" opacity="1" d="M 469.5 98 L 470.5 100 Q 467.7 100.7 469.5 98 Z " /><path fill="rgb(255,255,255)" stroke="rgb(255,255,255)" stroke-width="1" opacity="1" d="M 470.5 101 L 469.5 103 L 470.5 101 Z " /><path fill="rgb(255,255,255)" stroke="rgb(255,255,255)" stroke-width="1" opacity="1" d="M 170.5 103 L 174 103.5 L 173 106 L 168.5 107 L 168.5 106 L 170 105.5 L 167 104.5 L 170.5 103 Z " /><path fill="rgb(255,255,255)" stroke="rgb(255,255,255)" stroke-width="1" opacity="1" d="M 458.5 105 L 461 105.5 L 458.5 106 L 458.5 105 Z " /><path fill="rgb(255,255,255)" stroke="rgb(255,255,255)" stroke-width="1" opacity="1" d="M 462.5 106 L 465 106.5 L 462.5 107 L 462.5 106 Z " /><path fill="rgb(255,255,255)" stroke="rgb(255,255,255)" stroke-width="1" opacity="1" d="M 172.5 107 Q 175.1 106.3 174 109 L 171 108.5 L 172.5 107 Z " /><path fill="rgb(255,255,255)" stroke="rgb(255,255,255)" stroke-width="1" opacity="1" d="M 460.5 107 L 460.5 110 L 458 108.5 L 460.5 107 Z " /><path fill="rgb(255,255,255)" stroke="rgb(255,255,255)" stroke-width="1" opacity="1" d="M 175.5 109 L 176 111 L 172 110.5 L 175.5 109 Z " /><path fill="rgb(255,255,255)" stroke="rgb(255,255,255)" stroke-width="1" opacity="1" d="M 179.5 170 L 184.5 171 L 449 171.5 L 184.5 172 L 180.5 171 L 178.5 172 L 179.5 170 Z " /><path fill="rgb(255,255,255)" stroke="rgb(255,255,255)" stroke-width="1" opacity="1" d="M 451.5 170 L 455 171.5 L 452.5 172 L 451.5 170 Z " /><path fill="rgb(255,255,255)" stroke="rgb(255,255,255)" stroke-width="1" opacity="1" d="M 172.5 172 Q 174.8 171.3 174 173.5 L 172.5 172 Z " /><path fill="rgb(255,255,255)" stroke="rgb(255,255,255)" stroke-width="1" opacity="1" d="M 459.5 172 L 464 174.5 L 465 177.5 L 464 179.5 L 468 177.5 L 467 179.5 L 468 181.5 L 467 181.5 Q 467.7 178.9 465 180 L 464 186.5 L 465.5 186 L 469 187.5 L 467.5 190 L 464.5 188 L 464 193.5 L 465 193.5 L 465 192 L 469 192 L 472 200.5 L 472.5 208 L 474.5 207 L 474.5 208 L 471.5 209 L 465 208 L 465.5 211 L 469 209 L 467.5 212 L 464.5 211 L 463.5 217 L 461.5 217 L 459 217 Q 460 220 457 219 L 456.5 217 L 456 219.5 L 460 222.5 L 459.5 224 L 457.5 223 L 457.5 225 Q 454.8 223.8 457 222.5 L 456.5 221 L 455.5 222 L 448 222 L 448 225 L 440.5 225 L 439.5 224 L 366.5 224 L 255.5 225 L 191.5 225 L 190.5 224 L 182.5 224 L 177.5 225 L 175 224.5 L 176 223.5 L 173 220.5 Q 173.8 218.3 171.5 219 L 172.5 217 L 175.5 218 L 176 214 L 172.5 214 L 167.5 211 Q 166 214.5 164.5 212 Q 161.2 210.9 162 213.5 L 162.5 215 L 160 213.5 L 161 210 L 165.5 211 Q 166.8 208.8 171.5 210 L 173 208.5 L 166.5 208 L 162.5 209 L 160.5 209 L 159 208.5 L 159 206.5 L 160 201.5 L 158 201.5 L 157.5 200 L 155.5 201 L 155.5 200 L 158.5 199 L 160 199.5 L 160 192.5 L 163 192 L 163 190.5 L 161 186.5 L 166 186 L 166.5 184 L 167.5 186 L 168 184 L 174 183.5 L 170 182 Q 168.3 177.9 172.5 179 L 176 178 L 176 176 L 183.5 176 L 184 174 L 180 173.5 L 199.5 173 L 200.5 174 L 399.5 174 L 400.5 173 L 439.5 173 L 440.5 174 L 448 174 L 448.5 176 L 458.5 176 L 457.5 173 L 463 176 Q 464.1 173.3 461.5 174 L 459.5 172 Z M 176 187 L 173 190 Q 172 194 176 192 L 176 187 Z M 176 219 L 175 222 L 176 222 L 176 219 Z " /><path fill="rgb(255,255,255)" stroke="rgb(255,255,255)" stroke-width="1" opacity="1" d="M 170.5 173 L 171.5 175 L 170.5 173 Z " /><path fill="rgb(255,255,255)" stroke="rgb(255,255,255)" stroke-width="1" opacity="1" d="M 166.5 175 L 162.5 180 L 166.5 175 Z " /><path fill="rgb(255,255,255)" stroke="rgb(255,255,255)" stroke-width="1" opacity="1" d="M 469.5 179 L 471.5 182 L 469.5 179 Z " /><path fill="rgb(255,255,255)" stroke="rgb(255,255,255)" stroke-width="1" opacity="1" d="M 160.5 181 L 161 182.5 L 159 183.5 L 160.5 181 Z " /><path fill="rgb(255,255,255)" stroke="rgb(255,255,255)" stroke-width="1" opacity="1" d="M 471.5 183 L 474.5 187 L 472.5 188 L 473 186.5 L 471.5 183 Z " /><path fill="rgb(255,255,255)" stroke="rgb(255,255,255)" stroke-width="1" opacity="1" d="M 158.5 185 L 159 187.5 L 157.5 190 L 157 188.5 L 158.5 185 Z " /><path fill="rgb(255,255,255)" stroke="rgb(255,255,255)" stroke-width="1" opacity="1" d="M 474.5 188 Q 477.5 189.5 474.5 191 L 474.5 188 Z " /><path fill="rgb(255,255,255)" stroke="rgb(255,255,255)" stroke-width="1" opacity="1" d="M 473.5 192 L 474 197.5 L 473 197.5 L 473.5 192 Z " /><path fill="rgb(255,255,255)" stroke="rgb(255,255,255)" stroke-width="1" opacity="1" d="M 475.5 192 L 477 195.5 L 475 194.5 L 475.5 192 Z " /><path fill="rgb(255,255,255)" stroke="rgb(255,255,255)" stroke-width="1" opacity="1" d="M 473.5 202 L 474 204.5 L 473 204.5 L 473.5 202 Z " /><path fill="rgb(255,255,255)" stroke="rgb(255,255,255)" stroke-width="1" opacity="1" d="M 156.5 204 L 158 207.5 L 157 207.5 L 156.5 204 Z " /><path fill="rgb(255,255,255)" stroke="rgb(255,255,255)" stroke-width="1" opacity="1" d="M 158.5 210 L 159.5 212 L 158.5 210 Z " /><path fill="rgb(255,255,255)" stroke="rgb(255,255,255)" stroke-width="1" opacity="1" d="M 473.5 210 L 473 211.5 Q 473.8 214.1 470.5 213 L 471.5 211 L 473.5 210 Z " /><path fill="rgb(255,255,255)" stroke="rgb(255,255,255)" stroke-width="1" opacity="1" d="M 469.5 214 L 470 217 L 467 217.5 Q 469.3 218.8 466.5 220 L 464.5 221 L 461 218.5 L 462.5 218 Q 464 221.5 465.5 219 L 467 218.5 L 465 217.5 L 469.5 214 Z " /><path fill="rgb(255,255,255)" stroke="rgb(255,255,255)" stroke-width="1" opacity="1" d="M 163.5 217 L 165.5 220 L 163.5 217 Z " /><path fill="rgb(255,255,255)" stroke="rgb(255,255,255)" stroke-width="1" opacity="1" d="M 169.5 221 L 174 223.5 L 172.5 224 L 169.5 221 Z " /><path fill="rgb(255,255,255)" stroke="rgb(255,255,255)" stroke-width="1" opacity="1" d="M 449.5 224 L 452 224.5 L 449.5 225 L 449.5 224 Z " /><path fill="rgb(255,255,255)" stroke="rgb(255,255,255)" stroke-width="1" opacity="1" d="M 179.5 283 L 423.5 283 L 424.5 284 L 439.5 284 L 440.5 283 L 452.5 283 L 454.5 286 L 452 286 Q 453.3 283 449.5 284 L 448.5 286 L 452.5 288 L 459.5 285 L 459.5 286 L 456 287 Q 454.8 290 458.5 289 L 468 292 L 468.5 290 L 469 291.5 L 467.5 294 L 464.5 292 L 465 293.5 Q 464.3 295.8 466.5 295 L 466.5 296 L 464.5 295 L 464 297.5 L 468 299 Q 469.3 302 465.5 301 L 464 302.5 L 464 311.5 L 465 311.5 L 465 304.5 L 467 304 L 467 311.5 L 464 317.5 L 464 322.5 L 465.5 322 L 468.5 321 Q 470.8 321.8 470 325.5 Q 468.8 328.3 467.5 326 L 464.5 325 L 464 328 L 467 329.5 L 465.5 329 L 464 329.5 L 466.5 333 Q 463.9 333.7 465 331 L 462.5 331 L 458.5 332 L 456 334.5 L 456.5 337 L 461.5 333 L 462 334.5 Q 459.7 338.7 452.5 338 L 450.5 337 L 448.5 338 L 447.5 337 L 184.5 337 L 182.5 336 Q 181.1 338.6 176.5 338 L 176.5 337 L 180 336.5 L 175 336 L 176 332 L 173 333.5 L 171.5 336 L 169.5 333 L 173 332.5 L 172.5 331 Q 177.3 332.3 176 329 L 174 328.5 L 176 328 L 175.5 326 L 168 326 L 169 331.5 L 168 331.5 L 167.5 330 L 165.5 333 L 166 331.5 L 164 328.5 L 167 329.5 Q 167.8 325.8 165.5 325 L 162.5 327 L 160 323.5 L 162 320.5 L 162 304 L 159.5 303 L 158.5 306 L 157.5 303 L 155.5 309 L 155 306.5 L 157.5 301 L 158.5 303 L 160 299.5 L 158 299.5 L 159.5 297 L 164 300.5 L 166.5 304 L 170 304 L 170 294.5 L 168 292.5 L 171.5 289 L 176 290 Q 174.9 286.5 182.5 288 L 182.5 287 L 180 286.5 L 183 284.5 L 179.5 284 L 176.5 286 L 175.5 284 L 177.5 285 L 179.5 283 Z M 185 284 L 185 285 L 392 286 L 184 287 L 216 287 L 217 288 Q 223 290 225 287 L 296 287 L 297 288 Q 303 290 305 287 Q 311 285 313 288 Q 319 290 321 287 Q 327 285 329 288 Q 335 290 337 287 L 400 287 L 401 288 Q 407 290 409 287 L 424 287 L 425 288 L 440 288 L 448 287 L 440 285 L 425 285 L 424 286 L 416 286 L 424 285 L 185 284 Z M 441 284 L 441 285 L 448 285 L 441 284 Z M 224 288 L 225 290 L 280 290 L 280 288 L 224 288 Z M 336 288 L 337 290 L 392 290 L 392 288 L 336 288 Z M 462 293 L 464 295 Q 465 292 462 293 Z M 456 328 L 456 331 L 462 329 L 456 328 Z " /><path fill="rgb(255,255,255)" stroke="rgb(255,255,255)" stroke-width="1" opacity="1" d="M 400.5 285 L 408 285.5 L 400.5 286 L 400.5 285 Z " /><path fill="rgb(255,255,255)" stroke="rgb(255,255,255)" stroke-width="1" opacity="1" d="M 167.5 290 L 166 292.5 L 165.5 294 L 165 292.5 L 167.5 290 Z " /><path fill="rgb(255,255,255)" stroke="rgb(255,255,255)" stroke-width="1" opacity="1" d="M 161.5 294 L 164 295.5 L 162.5 295 L 160.5 296 L 161.5 294 Z " /><path fill="rgb(255,255,255)" stroke="rgb(255,255,255)" stroke-width="1" opacity="1" d="M 167.5 294 L 166.5 296 L 165 295.5 L 167.5 294 Z " /><path fill="rgb(255,255,255)" stroke="rgb(255,255,255)" stroke-width="1" opacity="1" d="M 471.5 295 Q 474.5 294.1 473 298.5 L 473 300.5 L 473.5 302 L 475.5 301 L 474 303.5 L 475 304.5 L 474.5 307 L 473.5 304 L 472 304.5 L 472 302.5 L 473 299.5 L 471.5 295 Z " /><path fill="rgb(255,255,255)" stroke="rgb(255,255,255)" stroke-width="1" opacity="1" d="M 469 304 L 471 304.5 L 471 315.5 L 470 320 Q 466.3 321.4 468 315.5 L 469 314.5 L 469 304 Z " /><path fill="rgb(255,255,255)" stroke="rgb(255,255,255)" stroke-width="1" opacity="1" d="M 157.5 308 L 158 312.5 L 157 312.5 L 157.5 308 Z " /><path fill="rgb(255,255,255)" stroke="rgb(255,255,255)" stroke-width="1" opacity="1" d="M 472 308 Q 474.7 306.9 474 309.5 L 475 311.5 L 473.5 315 L 473 312.5 L 474 310 Q 471 311 472 308 Z " /><path fill="rgb(255,255,255)" stroke="rgb(255,255,255)" stroke-width="1" opacity="1" d="M 476.5 310 L 478 313.5 L 474.5 321 L 473 320.5 L 472.5 322 L 472 318 Q 474.7 316.9 474 319.5 L 475 319.5 L 475 314.5 L 477 314 L 477 312.5 L 476.5 310 Z " /><path fill="rgb(255,255,255)" stroke="rgb(255,255,255)" stroke-width="1" opacity="1" d="M 156.5 315 L 157 319.5 L 156 319.5 L 156.5 315 Z " /><path fill="rgb(255,255,255)" stroke="rgb(255,255,255)" stroke-width="1" opacity="1" d="M 158 321 L 160 321.5 L 158 322.5 L 158 321 Z " /><path fill="rgb(255,255,255)" stroke="rgb(255,255,255)" stroke-width="1" opacity="1" d="M 162.5 328 L 164 330.5 L 162 329.5 L 162.5 328 Z " /><path fill="rgb(255,255,255)" stroke="rgb(255,255,255)" stroke-width="1" opacity="1" d="M 169.5 328 L 172 328.5 L 169.5 329 L 169.5 328 Z " /><path fill="rgb(255,255,255)" stroke="rgb(255,255,255)" stroke-width="1" opacity="1" d="M 468.5 328 Q 470.8 327.3 470 329.5 L 468.5 332 L 468 330.5 L 468.5 328 Z " /></svg>